<svg width="139" height="22" viewBox="0 0 139 22" fill="none" xmlns="http://www.w3.org/2000/svg">
<path d="M19.5481 21.3266V13.1225V0.286865H22.6084H31.1891C34.6788 0.286865 37.596 3.20256 37.596 6.69046C37.596 10.1207 34.9074 12.8941 31.59 13.1225L37.5675 21.3266H33.6485L27.671 13.1225H22.6084V21.3266H19.5481ZM22.6084 10.0638H31.1891C33.0198 10.0638 34.5642 8.57709 34.5642 6.69046C34.5642 4.86076 33.0198 3.34561 31.1891 3.34561H22.6084V10.0638Z" fill="white"/>
<path d="M39.064 10.1013H42.1348C42.4967 6.3183 45.6874 3.3307 49.536 3.3307C53.4393 3.3307 56.657 6.3183 57.0227 10.1013H60.065C59.6994 4.60543 55.1561 0.272705 49.536 0.272705C43.9976 0.272705 39.4326 4.60543 39.064 10.1013Z" fill="#3E63AD"/>
<path d="M49.5361 21.3403C55.1794 21.3403 59.7354 16.9716 60.0689 11.469H57.0281C56.6946 15.2595 53.4619 18.2815 49.5361 18.2815C45.665 18.2815 42.4601 15.2595 42.1296 11.469H39.0596C39.3953 16.9716 43.9753 21.3403 49.5361 21.3403Z" fill="white"/>
<path d="M67.1972 11.9505L64.5663 14.6086V21.3267H61.5344V0.31543H64.5663V10.2923L74.5482 0.31543H78.8667L69.3426 9.80623L78.7236 21.3267H74.8338L67.1972 11.9505Z" fill="white"/>
<path d="M80.2964 21.4412V21.3266V18.3825V12.3504V9.29162V3.14566V0.315348V0.0869141H96.9138V3.14566H83.3567V9.29162H91.5365V12.3504H83.3567V18.3825H96.9138V21.4412H80.2964Z" fill="white"/>
<path d="M98.3445 21.3266V13.1225V0.286865H101.405H109.986C113.474 0.286865 116.392 3.20256 116.392 6.69046C116.392 10.1207 113.704 12.8941 110.386 13.1225L116.364 21.3266H112.446L106.468 13.1225H101.406V21.3266H98.3445ZM101.405 10.0638H109.986C111.816 10.0638 113.361 8.57709 113.361 6.69046C113.361 4.86076 111.816 3.34561 109.986 3.34561H101.405V10.0638Z" fill="white"/>
<path d="M123.885 0.286865H132.866C135.611 0.286865 137.957 2.17349 138.672 4.71771L135.84 6.28977C135.84 4.66003 134.496 3.3164 132.866 3.3164H123.885C122.226 3.3164 120.882 4.66003 120.882 6.28977C120.882 7.94796 122.226 9.29159 123.885 9.29159H128.376H132.867C136.155 9.29159 138.902 12.0073 138.902 15.3237C138.902 18.6401 136.156 21.3266 132.867 21.3266H123.886C121.14 21.3266 118.823 19.4969 118.108 16.9812L120.882 15.323C120.882 16.9812 122.227 18.2671 123.886 18.2671H132.867C134.497 18.2671 135.841 16.9804 135.841 15.323C135.841 13.6648 134.496 12.3211 132.867 12.3211H128.376V12.3496H123.885C120.567 12.3496 117.821 9.60541 117.821 6.28902C117.822 3.00259 120.568 0.286865 123.885 0.286865Z" fill="white"/>
<path d="M13.2843 8.54873C13.7707 7.71964 14.0277 6.77595 14.0277 5.74688C14.0277 2.74505 11.5683 0.31543 8.56498 0.31543H3.48444H0.0989132H0V21.3267H0.0989132H3.48444H11.6253C15.2004 21.3267 18.1176 18.411 18.1176 14.8377C18.1176 11.8075 16.0584 9.26324 13.2843 8.54873ZM8.56498 3.34572C9.9093 3.34572 10.9959 4.40325 10.9959 5.74688C10.9959 7.09051 9.9093 8.1765 8.56498 8.1765H3.48444V3.34497H8.56498V3.34572ZM11.6253 18.2964H3.48444V11.3214H11.6253C13.5414 11.3214 15.0573 12.8934 15.0573 14.8377C15.0573 16.7528 13.5414 18.2964 11.6253 18.2964Z" fill="white"/>
</svg>
